<?xml version="1.0" standalone="no"?>
<!DOCTYPE svg PUBLIC "-//W3C//DTD SVG 20010904//EN"
 "http://www.w3.org/TR/2001/REC-SVG-20010904/DTD/svg10.dtd">
<svg version="1.0" xmlns="http://www.w3.org/2000/svg"
 width="40.000000pt" height="31.000000pt" viewBox="0 0 40.000000 31.000000"
 preserveAspectRatio="xMidYMid meet">

<g transform="translate(0.000000,31.000000) scale(0.100000,-0.100000)"
fill="#000000" stroke="none">
<path d="M65 301 c-37 -15 -60 -51 -60 -92 0 -33 8 -46 50 -89 42 -43 55 -50
88 -50 35 0 47 8 111 70 56 54 68 72 59 81 -10 10 -27 -1 -82 -49 -40 -36 -79
-62 -91 -62 -28 0 -100 71 -100 99 0 43 75 83 95 51 5 -8 11 -7 21 1 20 16 18
24 -11 37 -30 14 -51 14 -80 3z"/>
<path d="M255 296 c-16 -7 -48 -32 -69 -54 -36 -38 -41 -40 -60 -26 -27 19
-36 18 -36 -5 0 -21 35 -51 58 -51 7 0 39 25 71 55 62 59 89 67 121 35 35 -35
25 -59 -59 -142 -61 -60 -86 -78 -107 -78 -33 0 -22 -15 19 -25 25 -7 36 1
115 78 81 80 87 88 87 126 0 73 -73 118 -140 87z"/>
</g>
</svg>
